#define album_15x15_width 15
#define album_15x15_height 15
static unsigned char album_15x15_bits[] = {
   0x60, 0x02, 0x78, 0x07, 0x7c, 0x07, 0x7e, 0x23, 0x7e, 0x33, 0x1f, 0x7c,
   0xdf, 0x7d, 0x5f, 0x7d, 0xdf, 0x7d, 0x1f, 0x7c, 0xe6, 0x3f, 0xe0, 0x3f,
   0xf0, 0x1f, 0xf0, 0x0f, 0xe0, 0x03 };
