#define artist_15x15_width 15
#define artist_15x15_height 15
static unsigned char artist_15x15_bits[] = {
   0xe0, 0x03, 0x78, 0x0f, 0x0c, 0x18, 0x04, 0x10, 0x06, 0x30, 0x02, 0x20,
   0x1a, 0x2c, 0x3e, 0x3e, 0x76, 0x37, 0x74, 0x17, 0x6c, 0x1b, 0x48, 0x09,
   0x18, 0x0c, 0x70, 0x07, 0xc0, 0x01 };
