#define track_width 15
#define track_height 15
static unsigned char track_bits[] = {
   0x00, 0x1c, 0x80, 0x1f, 0xc0, 0x1f, 0xc0, 0x0f, 0xc0, 0x03, 0xc0, 0x00,
   0xc0, 0x00, 0xc0, 0x00, 0xc0, 0x00, 0xc0, 0x00, 0xc0, 0x00, 0xf0, 0x00,
   0xf8, 0x00, 0xf8, 0x00, 0x78, 0x00 };
